<svg viewBox="0 0 24 24" xmlns="http://www.w3.org/2000/svg">
<path fill-rule="evenodd" clip-rule="evenodd" d="M9.08417 3.25C9.88902 2.62329 10.9009 2.25 12 2.25C14.3682 2.25 16.3315 3.98301 16.6911 6.25H18C19.5188 6.25 20.75 7.48122 20.75 9V10.9184C21.3412 11.1993 21.75 11.8019 21.75 12.5V15.5C21.75 16.1981 21.3412 16.8007 20.75 17.0816V19C20.75 20.5188 19.5188 21.75 18 21.75H5.5C3.70507 21.75 2.25 20.2949 2.25 18.5V5.5C2.25 4.25736 3.25736 3.25 4.5 3.25H9.08417ZM9.86221 4.55201C10.4336 4.05259 11.1815 3.75 12 3.75C13.5368 3.75 14.8245 4.81665 15.163 6.25H8.83697C8.99273 5.5906 9.34935 5.00882 9.83868 4.57278C9.84666 4.56602 9.85451 4.55909 9.86221 4.55201ZM7.81565 4.75H4.5C4.08579 4.75 3.75 5.08579 3.75 5.5C3.75 5.91421 4.08579 6.25 4.5 6.25H7.30888C7.39374 5.71501 7.56791 5.20976 7.81565 4.75ZM4.5 7.75C4.23702 7.75 3.98458 7.70488 3.75 7.62197V18.5C3.75 19.4665 4.5335 20.25 5.5 20.25H18C18.6904 20.25 19.25 19.6904 19.25 19V17.25H18.5C16.7051 17.25 15.25 15.7949 15.25 14C15.25 12.2051 16.7051 10.75 18.5 10.75H19.25V9C19.25 8.30964 18.6904 7.75 18 7.75H4.5ZM16.75 14C16.75 13.0335 17.5335 12.25 18.5 12.25H20C20.1381 12.25 20.25 12.3619 20.25 12.5V15.5C20.25 15.6381 20.1381 15.75 20 15.75H18.5C17.5335 15.75 16.75 14.9665 16.75 14Z"/>
</svg>
